<?xml version="1.0" encoding="iso-8859-1"?>
<!-- Generator: Adobe Illustrator 19.0.0, SVG Export Plug-In . SVG Version: 6.00 Build 0)  -->
<svg xmlns="http://www.w3.org/2000/svg" xmlns:xlink="http://www.w3.org/1999/xlink" version="1.1" id="Layer_1" x="0px" y="0px" viewBox="0 0 512 512" style="enable-background:new 0 0 512 512;" xml:space="preserve" width="512" height="512">
<g>
	<g>
		<g id="XMLID_348_">
			<g>
				<g>
					<path style="fill:#F1F2F2;" d="M451.5,165.38v181.24c0,5.73-4.65,10.38-10.38,10.38H69.88c-5.73,0-10.38-4.65-10.38-10.38       V165.38c0-5.73,4.65-10.38,10.38-10.38h371.24C446.85,155,451.5,159.65,451.5,165.38z"/>
				</g>
			</g>
		</g>
		<path style="fill:#E8E9E9;" d="M192.677,346.62V165.38c0-5.73,4.65-10.38,10.38-10.38H69.88c-5.73,0-10.38,4.65-10.38,10.38    v181.24c0,5.73,4.65,10.38,10.38,10.38h133.177C197.327,357,192.677,352.35,192.677,346.62z"/>
		<g>
			<g>
				<g>
					<path style="fill:#FF395E;" d="M451.5,165.38V202H325.64l-5.4-16.95c-1.33-4.2-5.23-7.05-9.64-7.05h-75.2       c-4.41,0-8.31,2.85-9.64,7.05l-5.4,16.95H59.5v-36.62c0-5.73,4.65-10.38,10.38-10.38h371.24       C446.85,155,451.5,159.65,451.5,165.38z"/>
				</g>
			</g>
		</g>
		<path style="fill:#B12E65;" d="M192.677,165.38c0-5.73,4.65-10.38,10.38-10.38H69.88c-0.716,0-1.416,0.073-2.091,0.211    s-1.327,0.342-1.948,0.605c-0.621,0.263-1.211,0.584-1.763,0.958c-2.761,1.866-4.578,5.025-4.578,8.606V202h133.177V165.38z"/>
		<g id="XMLID_350_">
			<g>
				<g>
					<path style="fill:#C9CACA;" d="M385.24,185.05l5.4,16.95h-65l-5.4-16.95c-1.33-4.2-5.23-7.05-9.64-7.05h65       C380.01,178,383.91,180.85,385.24,185.05z"/>
				</g>
			</g>
		</g>
		<g id="XMLID_351_">
			<g>
				<g>
					<path style="fill:#FF395E;" d="M219.5,238.48v82.04c0,6.34-5.14,11.48-11.48,11.48H95.98c-6.34,0-11.48-5.14-11.48-11.48       v-82.04c0-6.34,5.14-11.48,11.48-11.48h112.04C214.36,227,219.5,232.14,219.5,238.48z"/>
				</g>
			</g>
		</g>
		<path style="fill:#B12E65;" d="M152,320.52v-82.04c0-6.34,5.14-11.48,11.48-11.48h-67.5c-6.34,0-11.48,5.14-11.48,11.48v82.04    c0,6.34,5.14,11.48,11.48,11.48h67.5C157.14,332,152,326.86,152,320.52z"/>
		<g id="XMLID_352_">
			<g>
				<g>
					<path style="fill:#FFFFFF;" d="M175.73,276.06c2.79,1.41,2.76,5.41-0.05,6.79l-45.71,22.46c-2.52,1.24-5.47-0.6-5.47-3.41       v-45.71c0-2.83,2.99-4.67,5.52-3.38L175.73,276.06z"/>
				</g>
			</g>
		</g>
		<g id="XMLID_353_">
			<g>
				<g>
					<path style="fill:#C5D65C;" d="M425.5,230.61v23.78c0,2-1.61,3.61-3.61,3.61h-89.78c-2,0-3.61-1.61-3.61-3.61v-23.78       c0-2,1.61-3.61,3.61-3.61h89.78C423.89,227,425.5,228.61,425.5,230.61z"/>
				</g>
			</g>
		</g>
		<g id="XMLID_354_">
			<g>
				<g>
					<path style="fill:#F3D064;" d="M425.5,305.07v22.86c0,2.25-1.82,4.07-4.07,4.07h-88.86c-2.25,0-4.07-1.82-4.07-4.07v-22.86       c0-2.25,1.82-4.07,4.07-4.07h88.86C423.68,301,425.5,302.82,425.5,305.07z"/>
				</g>
			</g>
		</g>
	</g>
	<g>
		<path style="fill:#000100;" d="M500.621,143.5c6.274,0,11.379-5.104,11.379-11.379v-20.242c0-6.274-5.104-11.379-11.379-11.379    h-20.242c-6.274,0-11.379,5.104-11.379,11.379v2.621H278v-2.621c0-6.274-5.104-11.379-11.379-11.379h-20.243    c-6.274,0-11.378,5.104-11.378,11.379v2.621H43v-2.621c0-6.274-5.104-11.379-11.378-11.379H11.378    C5.104,100.5,0,105.604,0,111.879v20.242c0,6.274,5.104,11.379,11.378,11.379H15v93h-3.622C5.104,236.5,0,241.604,0,247.879    v20.242c0,6.274,5.104,11.379,11.378,11.379H15v89h-3.622C5.104,368.5,0,373.604,0,379.879v20.242    c0,6.274,5.104,11.379,11.378,11.379h20.243c6.274,0,11.378-5.104,11.378-11.379V397.5h192v2.621    c0,6.274,5.104,11.379,11.378,11.379h20.243c6.274,0,11.379-5.104,11.379-11.379V397.5h191v2.621    c0,6.274,5.104,11.379,11.379,11.379h20.242c6.274,0,11.379-5.104,11.379-11.379v-20.242c0-6.274-5.104-11.379-11.379-11.379H496    v-89h4.621c6.274,0,11.379-5.104,11.379-11.379v-20.242c0-6.274-5.104-11.379-11.379-11.379H496v-93H500.621z M484,115.5h13v13    h-8.5H484V122V115.5z M250,115.5h13v6.5v6.5h-13V122V115.5z M15,115.5h13v6.5v6.5h-5.5H15V115.5z M15,251.5h7.5H28v13h-5.5H15    V251.5z M28,396.5H15v-13h7.5H28v6.5V396.5z M263,396.5h-13V390v-6.5h13v6.5V396.5z M497,396.5h-13V390v-6.5h4.5h8.5V396.5z     M497,264.5h-8.5H484v-13h4.5h8.5V264.5z M481,236.5h-0.621c-6.274,0-11.379,5.104-11.379,11.379v20.242    c0,6.274,5.104,11.379,11.379,11.379H481v89h-0.621c-6.274,0-11.379,5.104-11.379,11.379v2.621H278v-2.621    c0-6.274-5.104-11.379-11.379-11.379h-20.242h0c-4.313,0-8.074,2.413-10.003,5.959c-0.877,1.612-1.375,3.458-1.375,5.419v2.621H43    v-2.621c0-6.274-5.104-11.379-11.378-11.379H30v-89h1.622c6.274,0,11.378-5.104,11.378-11.379v-20.242    c0-6.274-5.104-11.379-11.378-11.379H30v-93h1.622c6.274,0,11.378-5.104,11.378-11.379V129.5h192v2.621    c0,1.961,0.499,3.807,1.375,5.419c1.929,3.547,5.69,5.959,10.003,5.959h0h20.242c6.274,0,11.379-5.104,11.379-11.379V129.5h191    v2.621c0,6.274,5.104,11.379,11.379,11.379H481V236.5z"/>
		<circle style="fill:#000100;" cx="92.5" cy="178" r="7.5"/>
		<circle style="fill:#000100;" cx="126.5" cy="178" r="7.5"/>
		<circle style="fill:#000100;" cx="160.5" cy="178" r="7.5"/>
		<path style="fill:#000100;" d="M448.072,148.907c-2.139-0.906-4.489-1.407-6.954-1.407H69.882h0    c-6.296,0-11.831,3.279-15.018,8.211c-1.804,2.791-2.863,6.106-2.863,9.669v0.001V202v144.618c0,9.86,8.021,17.882,17.881,17.882    h371.237c9.86,0,17.882-8.021,17.882-17.882V202v-36.618v-0.001C459,157.986,454.488,151.625,448.072,148.907z M441.118,349.5    H69.881c-1.589,0-2.881-1.293-2.881-2.882V209.5h99.25c4.142,0,7.5-3.357,7.5-7.5s-3.358-7.5-7.5-7.5H67v-29.118    c0-1.174,0.708-2.184,1.719-2.632c0.015-0.007,0.027-0.017,0.042-0.023c0.084-0.036,0.177-0.055,0.265-0.083    c0.092-0.029,0.18-0.066,0.276-0.086c0.05-0.01,0.103-0.008,0.154-0.016c0.14-0.021,0.28-0.043,0.426-0.043h371.236    c1.589,0,2.882,1.293,2.882,2.882V194.5h-47.879l-3.73-11.721c-2.338-7.345-9.087-12.279-16.794-12.279h-65h-75.195    c-7.708,0-14.457,4.935-16.794,12.279l-3.73,11.721H196.25c-4.142,0-7.5,3.357-7.5,7.5s3.358,7.5,7.5,7.5h24.112    c3.266,0,6.156-2.113,7.147-5.226l5.393-16.946c0.348-1.094,1.353-1.828,2.5-1.828h75.195c1.147,0,2.152,0.734,2.501,1.828    l5.393,16.946c0.99,3.112,3.881,5.226,7.146,5.226h65H444v137.118C444,348.207,442.707,349.5,441.118,349.5z M328.258,185.5h47.34    c1.147,0,2.152,0.734,2.501,1.828l2.282,7.172h-49.259L328.258,185.5z"/>
		<path style="fill:#000100;" d="M219.5,219.5h-135c-4.142,0-7.5,3.357-7.5,7.5v105c0,4.143,3.358,7.5,7.5,7.5h135    c4.142,0,7.5-3.357,7.5-7.5V227C227,222.857,223.642,219.5,219.5,219.5z M212,324.5H92v-90h120V324.5z"/>
		<path style="fill:#000100;" d="M122.326,311.491c1.833,1.142,3.895,1.718,5.966,1.718c1.697,0,3.402-0.387,4.99-1.167    l45.705-22.46c3.867-1.898,6.287-5.754,6.317-10.063c0.03-4.308-2.337-8.196-6.177-10.148l-45.705-23.247    c-3.53-1.796-7.653-1.632-11.03,0.438c-3.376,2.07-5.393,5.672-5.393,9.633V301.9C117,305.829,118.991,309.414,122.326,311.491z     M132,262.229l33.729,17.155L132,295.958V262.229z"/>
		<path style="fill:#000100;" d="M425.5,219.5h-97c-4.143,0-7.5,3.357-7.5,7.5v31c0,4.143,3.357,7.5,7.5,7.5h97    c4.143,0,7.5-3.357,7.5-7.5v-31C433,222.857,429.643,219.5,425.5,219.5z M418,250.5h-82v-16h82V250.5z"/>
		<path style="fill:#000100;" d="M425.5,293.5h-97c-4.143,0-7.5,3.357-7.5,7.5v31c0,4.143,3.357,7.5,7.5,7.5h97    c4.143,0,7.5-3.357,7.5-7.5v-31C433,296.857,429.643,293.5,425.5,293.5z M418,324.5h-82v-16h82V324.5z"/>
		<path style="fill:#000100;" d="M246,257.5h57c4.143,0,7.5-3.357,7.5-7.5s-3.357-7.5-7.5-7.5h-57c-4.142,0-7.5,3.357-7.5,7.5    S241.858,257.5,246,257.5z"/>
		<path style="fill:#000100;" d="M246.5,288.5h57c4.143,0,7.5-3.357,7.5-7.5s-3.357-7.5-7.5-7.5h-57c-4.142,0-7.5,3.357-7.5,7.5    S242.358,288.5,246.5,288.5z"/>
		<path style="fill:#000100;" d="M304,304.5h-57c-4.142,0-7.5,3.357-7.5,7.5s3.358,7.5,7.5,7.5h57c4.143,0,7.5-3.357,7.5-7.5    S308.143,304.5,304,304.5z"/>
	</g>
</g>















</svg>
