<?xml version="1.0" encoding="iso-8859-1"?>
<!-- Generator: Adobe Illustrator 19.0.0, SVG Export Plug-In . SVG Version: 6.00 Build 0)  -->
<svg xmlns="http://www.w3.org/2000/svg" xmlns:xlink="http://www.w3.org/1999/xlink" version="1.1" id="Layer_1" x="0px" y="0px" viewBox="0 0 511.988 511.988" style="enable-background:new 0 0 511.988 511.988;" xml:space="preserve" width="512" height="512">
<g id="XMLID_1734_">
	<g id="XMLID_792_">
		<g id="XMLID_793_">
			<path id="XMLID_796_" style="fill:#14C4BB;" d="M469.769,381.905l-207.442,120.88c-3.916,2.28-8.758,2.28-12.674,0     l-207.43-120.88c-8.329-4.864-8.329-16.895,0-21.747l64.351-37.502l143.079-83.378c3.916-2.291,8.758-2.291,12.674,0     l143.091,83.378l64.351,37.502C478.097,365.01,478.097,377.041,469.769,381.905z"/>
			<path id="XMLID_799_" style="fill:#00A094;" d="M405.418,322.655l-135.134,78.751c-4.334,2.517-9.277,3.86-14.288,3.86     c-5.022,0-9.965-1.343-14.299-3.86l-135.123-78.751l143.079-83.378c3.916-2.291,8.758-2.291,12.674,0L405.418,322.655z"/>
			<path id="XMLID_804_" style="fill:#F96982;" d="M469.769,266.87L262.327,387.751c-3.916,2.28-8.758,2.28-12.674,0L42.223,266.87     c-8.329-4.853-8.329-16.895,0-21.747l64.351-37.502l143.079-83.378c3.916-2.28,8.758-2.28,12.674,0l143.091,83.378l64.351,37.502     C478.097,249.975,478.097,262.017,469.769,266.87z"/>
			<path id="XMLID_807_" style="fill:#ED3565;" d="M405.418,207.621l-135.134,78.751c-4.334,2.517-9.277,3.86-14.288,3.86     c-5.022,0-9.965-1.343-14.299-3.86l-135.123-78.751l143.079-83.378c3.916-2.28,8.758-2.28,12.674,0L405.418,207.621z"/>
			<path id="XMLID_812_" style="fill:#5089DD;" d="M249.657,272.717L42.221,151.835c-8.331-4.855-8.331-16.892,0-21.747     L249.657,9.207c3.916-2.282,8.757-2.282,12.673,0l207.436,120.882c8.331,4.855,8.331,16.892,0,21.747L262.33,272.717     C258.414,274.999,253.573,274.999,249.657,272.717z"/>
		</g>
	</g>
	<g id="XMLID_242_">
		<path id="XMLID_252_" d="M483.511,255.995c0-7.229-3.729-13.715-9.971-17.35l-68.917-40.168l68.919-40.162    c6.244-3.639,9.973-10.126,9.973-17.354c0-7.227-3.729-13.714-9.973-17.353L266.106,2.726c-6.237-3.635-13.988-3.636-20.226,0    L38.445,123.608c-6.244,3.639-9.972,10.126-9.972,17.353c0,7.228,3.728,13.715,9.972,17.354l68.92,40.163l-68.914,40.166    c-6.245,3.636-9.974,10.123-9.974,17.352c0,7.229,3.729,13.715,9.971,17.35l68.923,40.167l-68.92,40.161    c-6.242,3.634-9.971,10.117-9.974,17.343c-0.004,7.23,3.723,13.723,9.971,17.369l207.436,120.883    c3.118,1.813,6.612,2.72,10.108,2.72c3.497,0,6.997-0.908,10.118-2.724l105.38-61.42c3.579-2.085,4.789-6.678,2.703-10.256    c-2.086-3.578-6.678-4.789-10.256-2.703l-105.374,61.416c-1.583,0.922-3.552,0.923-5.133,0.003L46.004,375.427    c-2.282-1.332-2.527-3.523-2.526-4.404c0-0.878,0.246-3.063,2.523-4.388l76.266-44.441l32.381,18.871    c1.188,0.692,2.487,1.021,3.77,1.021c2.581,0,5.094-1.334,6.486-3.725c2.086-3.579,0.876-8.17-2.703-10.256L45.998,260.384    c-2.275-1.325-2.521-3.511-2.521-4.389s0.245-3.064,2.523-4.391l76.259-44.447l30.09,17.535c3.58,2.086,8.17,0.875,10.257-2.704    c2.085-3.579,0.874-8.171-2.704-10.256L45.998,145.355c-2.278-1.328-2.524-3.515-2.524-4.394c0-0.878,0.246-3.065,2.524-4.393    L253.434,15.686c1.581-0.922,3.543-0.92,5.12,0l207.436,120.882c2.279,1.328,2.525,3.515,2.525,4.393    c0,0.879-0.246,3.065-2.525,4.394L258.555,266.237c-1.579,0.919-3.542,0.92-5.121,0l-66.173-38.562    c-3.581-2.087-8.172-0.875-10.257,2.704c-2.085,3.579-0.875,8.171,2.704,10.256l66.174,38.563    c3.118,1.817,6.615,2.726,10.111,2.726c3.497,0,6.994-0.909,10.113-2.726l123.621-72.039l76.263,44.449    c2.275,1.325,2.521,3.511,2.521,4.389s-0.245,3.064-2.523,4.39L258.551,381.269c-1.578,0.922-3.536,0.922-5.12-0.004l-63.87-37.22    c-3.582-2.086-8.172-0.875-10.256,2.704c-2.086,3.579-0.876,8.171,2.703,10.256l63.863,37.216    c3.123,1.824,6.624,2.736,10.125,2.736c3.498,0,6.997-0.911,10.114-2.732l123.608-72.033l76.272,44.445    c2.274,1.324,2.521,3.509,2.521,4.387c0.001,0.881-0.244,3.072-2.522,4.402l-74.689,43.52c-3.579,2.085-4.79,6.677-2.705,10.256    c1.394,2.392,3.906,3.725,6.487,3.725c1.282,0,2.582-0.329,3.769-1.021l74.693-43.522c6.245-3.644,9.972-10.136,9.968-17.367    c-0.003-7.226-3.731-13.709-9.971-17.341l-68.925-40.164l68.922-40.165C479.782,269.71,483.511,263.224,483.511,255.995z"/>
		<path id="XMLID_251_" d="M228.611,90.456c-2.929-2.929-7.678-2.929-10.606,0c-2.93,2.929-2.93,7.677-0.001,10.606l12.862,12.863    c1.465,1.465,3.384,2.197,5.304,2.197c1.919,0,3.839-0.732,5.303-2.197c2.93-2.929,2.93-7.677,0.001-10.606L228.611,90.456z"/>
		<path id="XMLID_249_" d="M288.681,132.327h-65.373c-4.143,0-7.5,3.358-7.5,7.5s3.357,7.5,7.5,7.5h65.373    c4.143,0,7.5-3.358,7.5-7.5S292.823,132.327,288.681,132.327z"/>
		<path id="XMLID_246_" d="M288.681,158.532h-65.373c-4.143,0-7.5,3.358-7.5,7.5s3.357,7.5,7.5,7.5h65.373    c4.143,0,7.5-3.358,7.5-7.5S292.823,158.532,288.681,158.532z"/>
	</g>
</g>















</svg>
