<?xml version="1.0" encoding="iso-8859-1"?>
<!-- Generator: Adobe Illustrator 19.0.0, SVG Export Plug-In . SVG Version: 6.00 Build 0)  -->
<svg version="1.1" id="Capa_1" xmlns="http://www.w3.org/2000/svg" xmlns:xlink="http://www.w3.org/1999/xlink" x="0px" y="0px"
	 viewBox="0 0 491.203 491.203" style="enable-background:new 0 0 491.203 491.203;" xml:space="preserve">
<path style="fill:#7C84E8;" d="M81.841,201.605l-73.84,44l73.84,44l163.76,97.6l163.76-97.6l73.84-44l-73.84-44l-163.76,97.6
	L81.841,201.605z"/>
<path style="fill:#2B3990;" d="M81.841,289.605l-73.84,44l237.6,141.6l237.6-141.6l-73.84-44l-163.76,97.6L81.841,289.605z"/>
<path style="fill:#B4B9F2;" d="M245.601,16.005l-237.6,141.6l73.84,44l163.76,97.6l163.76-97.6l73.84-44L245.601,16.005z"/>
<path style="fill:#231F20;" d="M491.201,245.605c0-2.818-1.483-5.429-3.904-6.872l-62.304-37.128l62.304-37.128
	c3.795-2.262,5.038-7.173,2.776-10.968c-0.68-1.142-1.635-2.096-2.776-2.776l-237.6-141.6c-2.524-1.504-5.668-1.504-8.192,0
	l-237.6,141.6c-3.795,2.262-5.038,7.173-2.776,10.968c0.68,1.142,1.635,2.096,2.776,2.776l62.304,37.128L3.905,238.733
	c-3.795,2.262-5.038,7.173-2.776,10.968c0.68,1.142,1.635,2.096,2.776,2.776l62.304,37.128L3.905,326.733
	c-3.795,2.262-5.038,7.173-2.776,10.968c0.68,1.142,1.635,2.096,2.776,2.776l237.6,141.6c2.526,1.494,5.666,1.494,8.192,0
	l237.6-141.6c3.795-2.262,5.038-7.173,2.776-10.968c-0.68-1.142-1.635-2.096-2.776-2.776l-62.304-37.128l62.304-37.128
	C489.718,251.034,491.201,248.424,491.201,245.605L491.201,245.605z M245.601,25.317l221.976,132.288L245.601,289.893
	L23.625,157.605L245.601,25.317z M467.577,333.605L245.601,465.893L23.625,333.605l58.208-34.68l159.672,95.2
	c2.524,1.504,5.668,1.504,8.192,0l159.672-95.2L467.577,333.605z M245.601,377.893L23.625,245.605l58.208-34.68l159.672,95.2
	c2.524,1.504,5.668,1.504,8.192,0l159.672-95.2l58.208,34.68L245.601,377.893z"/>
<g>
</g>
<g>
</g>
<g>
</g>
<g>
</g>
<g>
</g>
<g>
</g>
<g>
</g>
<g>
</g>
<g>
</g>
<g>
</g>
<g>
</g>
<g>
</g>
<g>
</g>
<g>
</g>
<g>
</g>
</svg>
