<?xml version="1.0" encoding="iso-8859-1"?>
<!-- Generator: Adobe Illustrator 19.0.0, SVG Export Plug-In . SVG Version: 6.00 Build 0)  -->
<svg version="1.1" id="Capa_1" xmlns="http://www.w3.org/2000/svg" xmlns:xlink="http://www.w3.org/1999/xlink" x="0px" y="0px"
	 viewBox="0 0 480 480" style="enable-background:new 0 0 480 480;" xml:space="preserve">
<path style="fill:#B3B3B3;" d="M8,8h112v464H8V8z"/>
<path style="fill:#E47700;" d="M8,8h112v64H8V8z"/>
<path style="fill:#FF8800;" d="M8,72h112v64H8V72z"/>
<path style="fill:#FFA900;" d="M8,136h112v64H8V136z"/>
<path style="fill:#FEBD33;" d="M8,200h112v64H8V200z"/>
<path style="fill:#FED57D;" d="M8,264h112v64H8V264z"/>
<path style="fill:#CCCCCC;" d="M8,472h80l336-336l-80-80L8,392V472z"/>
<path style="fill:#36717A;" d="M376,184l48-48l-80-80l-48,48.808L376,184z"/>
<path style="fill:#338895;" d="M328,232l48-48l-80-80l-48,48.808L328,232z"/>
<path style="fill:#44B5C7;" d="M280,280l48-48l-80-80l-48,48.808L280,280z"/>
<path style="fill:#6CBBC7;" d="M232,328l48-48l-80-80l-48,48.808L232,328z"/>
<path style="fill:#89C9D2;" d="M184,376l48-48l-80-80l-48,48.808L184,376z"/>
<path style="fill:#E6E6E6;" d="M8,360h464v112H8V360z"/>
<path style="fill:#115B3A;" d="M408,360h64v112h-64V360z"/>
<path style="fill:#1A8856;" d="M344,360h64v112h-64V360z"/>
<path style="fill:#22B573;" d="M280,360h64v112h-64V360z"/>
<path style="fill:#7AD3AB;" d="M216,360h64v112h-64V360z"/>
<path style="fill:#A7E1C7;" d="M152,360h64v112h-64V360z"/>
<path style="fill:#808080;" d="M64,400L64,400c8.837,0,16,7.163,16,16l0,0c0,8.837-7.163,16-16,16l0,0c-8.837,0-16-7.163-16-16l0,0
	C48,407.163,55.163,400,64,400z"/>
<path d="M64,392c-13.255,0-24,10.745-24,24s10.745,24,24,24s24-10.745,24-24S77.255,392,64,392z M64,424c-4.418,0-8-3.582-8-8
	s3.582-8,8-8s8,3.582,8,8S68.418,424,64,424z"/>
<path d="M416,352H219.312l24-24L280,291.312l48-48l48-48L435.312,136L344,44.688l-0.048-0.048l-5.6,5.712L296,92.688l-0.048-0.048
	l-5.6,5.712L248,140.688l-0.048-0.048l-5.6,5.712L200,188.688l-0.048-0.048l-5.6,5.696L188.688,200L152,236.688l-0.048-0.048
	l-5.6,5.704L128,260.688V0H0v480h480V352L416,352z M196.688,352h-25.6L125.6,306.96l-10.328-10.232l8.632-8.8l27.744-28.208
	L220.656,328L196.688,352z M144,352H59.312l16-16l2.344-2.344l25.968-25.968l10.752,10.64L148.384,352L144,352z M163.664,248.352
	l4.216-4.288l31.792-32.32L268.656,280L232,316.688L163.664,248.352z M211.664,200.352l36-36.616L316.656,232L280,268.688
	L211.664,200.352z M364.656,184L328,220.688l-68.328-68.328l36-36.616L364.656,184z M412.656,136L376,172.688l-68.328-68.328
	l36.376-36.992L412.656,136z M16,16h96v48H16V16z M16,80h96v48H16V80z M16,144h96v48H16V144z M16,208h96v48H16V208z M16,272h96
	v4.688L68.688,320H16L16,272z M16,336h36.688l-16,16H16L16,336z M144,464H16v-96h128V464z M208,464h-48v-96h48V464z M272,464h-48
	v-96h48V464z M288,464v-96h48v96H288z M352,464v-96h48v96H352z M464,464h-48v-96h48V464z"/>
<g>
</g>
<g>
</g>
<g>
</g>
<g>
</g>
<g>
</g>
<g>
</g>
<g>
</g>
<g>
</g>
<g>
</g>
<g>
</g>
<g>
</g>
<g>
</g>
<g>
</g>
<g>
</g>
<g>
</g>
</svg>
