<?xml version="1.0" encoding="iso-8859-1"?>
<!-- Generator: Adobe Illustrator 19.0.0, SVG Export Plug-In . SVG Version: 6.00 Build 0)  -->
<svg version="1.1" id="Capa_1" xmlns="http://www.w3.org/2000/svg" xmlns:xlink="http://www.w3.org/1999/xlink" x="0px" y="0px"
	 viewBox="0 0 512 512" style="enable-background:new 0 0 512 512;" xml:space="preserve">
<path style="fill:#D1E5F1;" d="M8,136v296c0,17.672,14.328,32,32,32h464V136H88"/>
<path style="fill:#21A9F6;" d="M8,136c0-22.088,17.912-40,40-40s40,17.912,40,40v296c0-22.088-17.912-40-40-40S8,409.912,8,432"/>
<polygon style="fill:#FB7647;" points="120,432 120,376 416,376 416,296 472,296 472,432 "/>
<rect x="184" y="72" style="fill:#FA5419;" width="176" height="32"/>
<g>
	<rect x="360" y="72" style="fill:#F1D9D0;" width="32" height="32"/>
	<polygon style="fill:#F1D9D0;" points="184,72 168,72 144,88 168,104 184,104 	"/>
</g>
<rect x="152" y="232" style="fill:#FDD762;" width="128" height="112"/>
<rect x="208" y="176" style="fill:#FDCD3B;" width="128" height="112"/>
<path d="M504,128H95.28C91.456,105.336,71.744,88,48,88c-26.472,0-48,21.528-48,48v296c0,22.056,17.944,40,40,40h464
	c4.424,0,8-3.576,8-8V136C512,131.576,508.424,128,504,128z M48,104c17.648,0,32,14.352,32,32v260.248
	C71.504,388.64,60.28,384,48,384c-12.304,0-23.496,4.688-32,12.32V136C16,118.352,30.352,104,48,104z M496,456H40
	c-13.232,0-24-10.768-24-24c0-17.648,14.352-32,32-32s32,14.352,32,32c0,4.424,3.584,8,8,8s8-3.576,8-8V144h400V456z"/>
<path d="M120,440h352c4.424,0,8-3.576,8-8V296c0-4.424-3.576-8-8-8h-56c-4.424,0-8,3.576-8,8v72H120c-4.416,0-8,3.576-8,8v56
	C112,436.424,115.584,440,120,440z M128,384h288c4.424,0,8-3.576,8-8v-72h40v32h-16v16h16v32h-16v16h16v24h-48v-16h-16v16h-32v-24
	h-16v24h-32v-16h-16v16h-32v-24h-16v24h-32v-16h-16v16h-32v-24h-16v24h-32V384z"/>
<path d="M163.56,110.656c1.312,0.872,2.864,1.344,4.44,1.344h16h176h32c4.424,0,8-3.576,8-8V72c0-4.424-3.576-8-8-8h-32h-8V48
	c0-4.424-3.576-8-8-8h-56v16h48v8H184h-16c-1.576,0-3.128,0.472-4.44,1.344L141.576,80H120v16h21.576L163.56,110.656z M192,80h160
	v16H192V80z M384,96h-16V80h16V96z M170.424,80H176v16h-5.576l-12-8L170.424,80z"/>
<path d="M395.312,176H480v-16h-88c-2.128,0-4.16,0.84-5.656,2.344l-24,24l11.312,11.312L395.312,176z"/>
<rect x="400" y="192" width="24" height="16"/>
<rect x="440" y="192" width="40" height="16"/>
<rect x="456" y="224" width="24" height="16"/>
<rect x="400" y="224" width="40" height="16"/>
<path d="M152,352h128c4.424,0,8-3.576,8-8v-32h-16v24H160v-96h24v-16h-32c-4.416,0-8,3.576-8,8v112C144,348.424,147.584,352,152,352
	z"/>
<path d="M208,296h128c4.424,0,8-3.576,8-8V176c0-4.424-3.576-8-8-8H208c-4.416,0-8,3.576-8,8v112C200,292.424,203.584,296,208,296z
	 M216,184h112v96H216V184z"/>
<g>
</g>
<g>
</g>
<g>
</g>
<g>
</g>
<g>
</g>
<g>
</g>
<g>
</g>
<g>
</g>
<g>
</g>
<g>
</g>
<g>
</g>
<g>
</g>
<g>
</g>
<g>
</g>
<g>
</g>
</svg>
