<?xml version="1.0" encoding="iso-8859-1"?>
<!-- Generator: Adobe Illustrator 19.0.0, SVG Export Plug-In . SVG Version: 6.00 Build 0)  -->
<svg xmlns="http://www.w3.org/2000/svg" xmlns:xlink="http://www.w3.org/1999/xlink" version="1.1" id="Layer_1" x="0px" y="0px" viewBox="0 0 512 512" style="enable-background:new 0 0 512 512;" xml:space="preserve" width="512" height="512">
<g>
	<g>
		<g>
			<g>
				<g>
					<path style="fill:#474755;" d="M451.85,199.5H60.15c-10.02,0-18.15,8.13-18.15,18.15v181.7c0,10.02,8.13,18.15,18.15,18.15       h391.7c10.02,0,18.15-8.13,18.15-18.15v-181.7C470,207.63,461.87,199.5,451.85,199.5z"/>
				</g>
			</g>
			<path style="fill:#404251;" d="M244.25,399.35v-181.7c0-10.02,8.13-18.15,18.15-18.15H60.15c-10.02,0-18.15,8.13-18.15,18.15     v181.7c0,10.02,8.13,18.15,18.15,18.15H262.4C252.38,417.5,244.25,409.37,244.25,399.35z"/>
			<g>
				<g>
					<path style="fill:#FF395E;" d="M451.85,199.5H60.15c-10.02,0-18.15,8.13-18.15,18.15V243h428v-25.35       C470,207.63,461.87,199.5,451.85,199.5z"/>
				</g>
			</g>
			<path style="fill:#B12E65;" d="M244.25,217.65c0-10.02,8.13-18.15,18.15-18.15H60.15c-10.02,0-18.15,8.13-18.15,18.15V243h202.25     V217.65z"/>
			<g>
				<g>
					<g>
						<path style="fill:#F3D064;" d="M256,76l65.687,99.989c1.756,2.674,2.055,6.05,0.796,8.99L297,244.5v63h-82v-63l-25.484-59.521        c-1.259-2.941-0.96-6.317,0.796-8.99L256,76z"/>
					</g>
				</g>
			</g>
			<path style="fill:#EDBD41;" d="M256.343,244.5c-17.173-40.11-13.094-86.159,10.863-122.625l9.465-14.408L256,76l-65.687,99.989     c-1.756,2.674-2.055,6.05-0.796,8.99L215,244.5v63h41.344L256.343,244.5L256.343,244.5z"/>
			<g id="XMLID_103_">
				<g>
					<g>
						<path style="fill:#FFFFFF;" d="M256,165.5c10.49,0,19,8.51,19,19s-8.51,19-19,19c-10.49,0-19-8.51-19-19        S245.51,165.5,256,165.5z"/>
					</g>
				</g>
			</g>
			<g id="XMLID_101_">
				<g>
					<g>
						<g>
							<path style="fill:#8ACAEB;" d="M303,300.81v196.55c0,3.94-3.2,7.14-7.14,7.14h-79.72c-3.94,0-7.14-3.2-7.14-7.14V300.81         c0-5.7,4.61-10.31,10.31-10.31h73.38C298.39,290.5,303,295.11,303,300.81z"/>
						</g>
					</g>
				</g>
			</g>
			<path style="fill:#8BB1EA;" d="M256,497.36V300.81c0-5.7,4.61-10.31,10.31-10.31h-47c-5.7,0-10.31,4.61-10.31,10.31v196.55     c0,3.94,3.2,7.14,7.14,7.14h47C259.2,504.5,256,501.3,256,497.36z"/>
			<g>
				<g>
					<circle style="fill:#842D65;" cx="70" cy="221.5" r="6.5"/>
				</g>
			</g>
			<g>
				<g>
					<circle style="fill:#EAB430;" cx="94" cy="221.5" r="6.5"/>
				</g>
			</g>
			<g>
				<g>
					<circle style="fill:#C5D65C;" cx="118" cy="221.5" r="6.5"/>
				</g>
			</g>
			<g>
				<g>
					<path style="fill:#7CA1D8;" d="M90,288H72c-4.142,0-7.5-3.358-7.5-7.5s3.358-7.5,7.5-7.5h18c4.142,0,7.5,3.358,7.5,7.5       S94.142,288,90,288z"/>
				</g>
			</g>
			<g>
				<g>
					<path style="fill:#EAB430;" d="M185,288h-69c-4.142,0-7.5-3.358-7.5-7.5s3.358-7.5,7.5-7.5h69c4.142,0,7.5,3.358,7.5,7.5       S189.142,288,185,288z"/>
				</g>
			</g>
			<g>
				<g>
					<path style="fill:#EAB430;" d="M118,320H84c-4.142,0-7.5-3.358-7.5-7.5s3.358-7.5,7.5-7.5h34c4.142,0,7.5,3.358,7.5,7.5       S122.142,320,118,320z"/>
				</g>
			</g>
			<g>
				<g>
					<path style="fill:#FF395E;" d="M118,356h-14c-4.142,0-7.5-3.358-7.5-7.5s3.358-7.5,7.5-7.5h14c4.142,0,7.5,3.358,7.5,7.5       S122.142,356,118,356z"/>
				</g>
			</g>
			<g>
				<g>
					<path style="fill:#C5D65C;" d="M169,320h-29c-4.142,0-7.5-3.358-7.5-7.5s3.358-7.5,7.5-7.5h29c4.142,0,7.5,3.358,7.5,7.5       S173.142,320,169,320z"/>
				</g>
			</g>
			<g>
				<g>
					<path style="fill:#EAB430;" d="M162,356h-22c-4.142,0-7.5-3.358-7.5-7.5s3.358-7.5,7.5-7.5h22c4.142,0,7.5,3.358,7.5,7.5       S166.142,356,162,356z"/>
				</g>
			</g>
			<g>
				<g>
					<path style="fill:#C5D65C;" d="M142,391H72c-4.142,0-7.5-3.358-7.5-7.5s3.358-7.5,7.5-7.5h70c4.142,0,7.5,3.358,7.5,7.5       S146.142,391,142,391z"/>
				</g>
			</g>
			<g>
				<g>
					<path style="fill:#FF395E;" d="M185,389h-23c-4.142,0-7.5-3.358-7.5-7.5s3.358-7.5,7.5-7.5h23c4.142,0,7.5,3.358,7.5,7.5       S189.142,389,185,389z"/>
				</g>
			</g>
			<g>
				<g>
					<path style="fill:#FF395E;" d="M396,288h-69c-4.143,0-7.5-3.358-7.5-7.5s3.357-7.5,7.5-7.5h69c4.143,0,7.5,3.358,7.5,7.5       S400.143,288,396,288z"/>
				</g>
			</g>
			<g>
				<g>
					<path style="fill:#C5D65C;" d="M428,320h-52c-4.143,0-7.5-3.358-7.5-7.5s3.357-7.5,7.5-7.5h52c4.143,0,7.5,3.358,7.5,7.5       S432.143,320,428,320z"/>
				</g>
			</g>
			<g>
				<g>
					<path style="fill:#EAB430;" d="M428,356h-34c-4.143,0-7.5-3.358-7.5-7.5s3.357-7.5,7.5-7.5h34c4.143,0,7.5,3.358,7.5,7.5       S432.143,356,428,356z"/>
				</g>
			</g>
			<g>
				<g>
					<path style="fill:#EAB430;" d="M358,320h-15c-4.143,0-7.5-3.358-7.5-7.5s3.357-7.5,7.5-7.5h15c4.143,0,7.5,3.358,7.5,7.5       S362.143,320,358,320z"/>
				</g>
			</g>
			<g>
				<g>
					<path style="fill:#7CA1D8;" d="M372,356h-22c-4.143,0-7.5-3.358-7.5-7.5s3.357-7.5,7.5-7.5h22c4.143,0,7.5,3.358,7.5,7.5       S376.143,356,372,356z"/>
				</g>
			</g>
			<g>
				<g>
					<path style="fill:#FF395E;" d="M440,391h-70c-4.143,0-7.5-3.358-7.5-7.5s3.357-7.5,7.5-7.5h70c4.143,0,7.5,3.358,7.5,7.5       S444.143,391,440,391z"/>
				</g>
			</g>
			<g>
				<g>
					<path style="fill:#EAB430;" d="M350,389h-23c-4.143,0-7.5-3.358-7.5-7.5s3.357-7.5,7.5-7.5h23c4.143,0,7.5,3.358,7.5,7.5       S354.143,389,350,389z"/>
				</g>
			</g>
		</g>
	</g>
	<g>
		<path style="fill:#000100;" d="M451.848,192h-124.21l3.757-8.773c0.99-2.313,0.755-4.967-0.626-7.07L316.213,154h112.791    c2.945,7.04,9.9,12,17.996,12c10.752,0,19.5-8.748,19.5-19.5S457.752,127,447,127c-8.095,0-15.051,4.96-17.996,12h-75.437    c18.163-13.663,29.932-35.39,29.932-59.817V42.999c7.721-0.009,14-6.293,14-14.016V14.017C397.5,6.288,391.212,0,383.483,0    h-14.967C360.788,0,354.5,6.288,354.5,14.017v14.966c0,7.723,6.279,14.007,14,14.016v36.183c0,32.983-26.834,59.817-59.817,59.817    h-2.323l-43.218-65.789C262.173,70.189,259.344,68,256,68c-3.343,0-6.173,2.189-7.141,5.211L205.64,139h-4.323    c-32.983,0-59.817-26.834-59.817-59.817V42.999c7.721-0.009,14-6.293,14-14.016V14.017C155.5,6.288,149.212,0,141.483,0h-14.966    C118.788,0,112.5,6.288,112.5,14.017v14.966c0,7.723,6.279,14.007,14,14.016v36.183c0,24.427,11.77,46.154,29.933,59.817H83.996    c-2.945-7.04-9.9-12-17.996-12c-10.752,0-19.5,8.748-19.5,19.5S55.248,166,66,166c8.095,0,15.051-4.96,17.996-12h111.791    l-14.555,22.157c-1.381,2.103-1.616,4.757-0.626,7.07l3.757,8.773H60.152C46.008,192,34.5,203.508,34.5,217.652v181.695    C34.5,413.492,46.008,425,60.152,425H201.5v72H188c-4.142,0-7.5,3.358-7.5,7.5s3.358,7.5,7.5,7.5h28.136h79.727H325    c4.143,0,7.5-3.358,7.5-7.5s-3.357-7.5-7.5-7.5h-14.5v-33.5c0-4.142-3.357-7.5-7.5-7.5s-7.5,3.358-7.5,7.5V497h-79v-79.5v-59    c0-4.142-3.358-7.5-7.5-7.5s-7.5,3.358-7.5,7.5V410H60.152c-5.874,0-10.652-4.779-10.652-10.652V250.973h158v36.515    c-0.12,0.106-0.226,0.228-0.343,0.337c-0.244,0.229-0.484,0.461-0.715,0.703c-0.181,0.19-0.356,0.384-0.529,0.582    c-0.219,0.251-0.431,0.506-0.636,0.769c-0.162,0.208-0.32,0.417-0.473,0.632c-0.194,0.273-0.378,0.552-0.557,0.835    c-0.14,0.222-0.278,0.443-0.409,0.672c-0.168,0.295-0.322,0.597-0.474,0.902c-0.116,0.233-0.233,0.464-0.339,0.702    c-0.141,0.319-0.264,0.646-0.387,0.974c-0.089,0.239-0.184,0.474-0.263,0.717c-0.113,0.349-0.204,0.706-0.296,1.064    c-0.061,0.235-0.13,0.466-0.182,0.704c-0.086,0.401-0.144,0.811-0.202,1.222c-0.029,0.205-0.072,0.405-0.094,0.612    c-0.066,0.622-0.103,1.252-0.103,1.891V328.5c0,4.142,3.358,7.5,7.5,7.5s7.5-3.358,7.5-7.5v-27.693    c0-1.548,1.259-2.807,2.808-2.807h73.385c1.548,0,2.808,1.259,2.808,2.807V417.5v16c0,4.142,3.357,7.5,7.5,7.5s7.5-3.358,7.5-7.5    V425h141.348c14.145,0,25.652-11.508,25.652-25.652V217.653C477.5,203.508,465.992,192,451.848,192z M369.5,15h13v13h-13V15z     M127.5,15h13v13h-13V15z M451.848,207c5.874,0,10.652,4.779,10.652,10.653V236H308.798l12.417-29H451.848z M222.5,283v-38.5    c0-1.015-0.206-2.019-0.605-2.952l-19.268-45c0,0,0,0,0-0.001l-6.646-15.522l19.924-30.329c0.002-0.003,0.004-0.006,0.005-0.008    l32.591-49.611v58.011c-10.97,3.243-19,13.405-19,25.412c0,14.612,11.888,26.5,26.5,26.5s26.5-11.888,26.5-26.5    c0-12.008-8.03-22.169-19-25.412v-58.01l32.586,49.605c0.004,0.006,0.008,0.011,0.011,0.017l19.922,30.326l-6.645,15.52    c0,0.001-0.001,0.001-0.001,0.002l-19.268,45c-0.399,0.933-0.605,1.938-0.605,2.952V283H222.5z M256,173    c6.341,0,11.5,5.159,11.5,11.5S262.341,196,256,196c-6.341,0-11.5-5.159-11.5-11.5S249.659,173,256,173z M447,142    c2.481,0,4.5,2.019,4.5,4.5s-2.019,4.5-4.5,4.5s-4.5-2.019-4.5-4.5S444.519,142,447,142z M66,151c-2.481,0-4.5-2.019-4.5-4.5    s2.019-4.5,4.5-4.5s4.5,2.019,4.5,4.5S68.481,151,66,151z M49.5,217.652c0-5.874,4.779-10.652,10.652-10.652h130.632    l12.406,28.973H49.5V217.652z M451.848,410H310.5V300.807c0-0.639-0.037-1.27-0.103-1.892c-0.022-0.205-0.064-0.404-0.093-0.607    c-0.058-0.412-0.116-0.825-0.203-1.228c-0.051-0.237-0.12-0.466-0.18-0.7c-0.092-0.359-0.184-0.719-0.298-1.069    c-0.079-0.241-0.172-0.475-0.261-0.712c-0.123-0.33-0.248-0.659-0.39-0.98c-0.105-0.236-0.221-0.465-0.336-0.696    c-0.153-0.307-0.308-0.612-0.477-0.909c-0.129-0.226-0.267-0.446-0.405-0.667c-0.18-0.285-0.365-0.566-0.56-0.841    c-0.152-0.213-0.309-0.421-0.469-0.627c-0.206-0.264-0.419-0.521-0.639-0.773c-0.172-0.197-0.346-0.39-0.527-0.579    c-0.232-0.242-0.471-0.475-0.716-0.705c-0.117-0.109-0.222-0.23-0.342-0.337V251h158v148.348    C462.5,405.221,457.722,410,451.848,410z"/>
	</g>
</g>















</svg>
