<svg xmlns="http://www.w3.org/2000/svg" viewBox="0 0 45 45">
  <defs>
    <style>
      .cls-1 {
        fill: #fff;
      }
    </style>
  </defs>
  <g id="Group_27" data-name="Group 27" transform="translate(0)">
    <g id="_001-share" data-name="001-share" transform="translate(7.206 8.162)">
      <path id="Path_15" data-name="Path 15" class="cls-1" d="M35.737,18.454a5.14,5.14,0,0,0-4.068,2L23.778,16.05a5.152,5.152,0,0,0,.286-1.694,5.04,5.04,0,0,0-.292-1.7l7.885-4.4A5.13,5.13,0,1,0,30.6,5.135a5.014,5.014,0,0,0,.292,1.7l-7.879,4.4a5.13,5.13,0,1,0,.012,6.233l7.885,4.408a5.133,5.133,0,1,0,4.831-3.424Zm0-16.837a3.525,3.525,0,1,1-3.525,3.525A3.528,3.528,0,0,1,35.737,1.616Zm-16.8,16.265a3.525,3.525,0,1,1,3.525-3.525A3.528,3.528,0,0,1,18.941,17.881Zm16.8,9.227a3.525,3.525,0,1,1,3.525-3.525A3.528,3.528,0,0,1,35.737,27.108Z" transform="translate(-13.8)"/>
    </g>
    <path id="Path_25" data-name="Path 25" class="cls-1" d="M45,22.5A22.5,22.5,0,1,0,22.5,45,22.5,22.5,0,0,0,45,22.5Zm-42.955,0A20.455,20.455,0,1,1,22.5,42.955,20.454,20.454,0,0,1,2.045,22.5Z" transform="translate(0 0)"/>
  </g>
</svg>
